<svg id="Capa_1" enable-background="new 0 0 512 512" height="512" viewBox="0 0 512 512" width="512" xmlns="http://www.w3.org/2000/svg"><g><path d="m175 90h140c8.284 0 15-6.716 15-15s-6.716-15-15-15h-140c-8.284 0-15 6.716-15 15s6.716 15 15 15z"/><path d="m175 150h140c8.284 0 15-6.716 15-15s-6.716-15-15-15h-140c-8.284 0-15 6.716-15 15s6.716 15 15 15z"/><path d="m195 380h-120c-8.284 0-15 6.716-15 15s6.716 15 15 15h120c8.284 0 15-6.716 15-15s-6.716-15-15-15z"/><path d="m498.819 435.18-96.877-96.877c5.38-13.293 8.351-27.81 8.351-43.01 0-24.173-7.503-46.623-20.294-65.157v-185.136c0-24.813-20.187-45-45-45h-229.999c-3.979 0-7.794 1.581-10.606 4.394l-100 100c-2.814 2.813-4.394 6.628-4.394 10.606v352c0 24.813 20.187 45 45 45h300c24.813 0 45-20.187 45-45v-13.361l45.18 45.179c8.499 8.5 19.8 13.181 31.82 13.181s23.321-4.681 31.819-13.18c8.499-8.499 13.181-19.799 13.181-31.819s-4.681-23.32-13.181-31.82zm-203.525-54.886c-46.869 0-85-38.131-85-85s38.131-85 85-85 85 38.131 85 85-38.131 85-85 85zm-109.452-120.294h-95.842v-50h128.241c-14.808 13.39-26.12 30.573-32.399 50zm-85.842-208.787v48.787h-48.787zm260 415.787c0 8.271-6.729 15-15 15h-300c-8.271 0-15-6.729-15-15v-337h85c8.284 0 15-6.716 15-15v-85h215c8.271 0 15 6.729 15 15v155.275c-18.446-12.601-40.729-20.275-64.706-20.275h-220.294c-8.284 0-15 6.716-15 15v80c0 8.284 6.716 15 15 15h105.42c-.08 1.755-.126 3.519-.126 5.294 0 8.479.931 16.744 2.681 24.706h-107.975c-8.284 0-15 6.716-15 15s6.716 15 15 15h119.16c19.487 35.881 57.513 60.294 101.134 60.294 15.199 0 29.716-2.971 43.009-8.351l21.697 21.697zm117.605 10.607c-2.832 2.832-6.598 4.393-10.605 4.393s-7.773-1.56-10.606-4.393l-91.122-91.121c7.957-6.12 15.093-13.256 21.214-21.214l91.121 91.121c2.833 2.833 4.394 6.6 4.394 10.607-.001 4.006-1.562 7.773-4.396 10.607z"/></g></svg>